/* XPM */
static char *_j268_cqn49[] = {
/* columns rows colors chars-per-pixel */
"55 55 120 2 ",
"   c #03161D",
".  c #051A1F",
"X  c #081A1E",
"o  c #101B1F",
"O  c #001725",
"+  c #041B26",
"@  c #0B1C25",
"#  c #01172A",
"$  c #041C2B",
"%  c #0A1E2B",
"&  c #121D24",
"*  c #031E31",
"=  c #081F32",
"-  c #041D38",
";  c #05212E",
":  c #0B212D",
">  c #132026",
",  c #11232D",
"<  c #12292F",
"1  c #1B282E",
"2  c #062233",
"3  c #0A2333",
"4  c #072138",
"5  c #0D2439",
"6  c #0E2B3B",
"7  c #122533",
"8  c #152833",
"9  c #192B35",
"0  c #172A38",
"q  c #1E323D",
"w  c #2E3138",
"e  c #213540",
"r  c #293740",
"t  c #273842",
"y  c #2D3C46",
"u  c #233D4C",
"i  c #2C3F4C",
"p  c #2D404D",
"a  c #32434D",
"s  c #2D4253",
"d  c #324651",
"f  c #374E56",
"g  c #3A4D57",
"h  c #374A58",
"j  c #3F525C",
"k  c #444C4E",
"l  c #41535E",
"z  c #4A575D",
"x  c #4B595C",
"c  c #435561",
"v  c #485661",
"b  c #465D63",
"n  c #4B5E66",
"m  c #495F6A",
"M  c #52636A",
"N  c #576A75",
"B  c #5A6C75",
"V  c #5B6D79",
"C  c #636770",
"Z  c #606F76",
"A  c #65727B",
"S  c #74797C",
"D  c #637582",
"F  c #677882",
"G  c #6C7F86",
"H  c #6F7D88",
"J  c #707F86",
"K  c #6E878E",
"L  c #73858C",
"P  c #768894",
"I  c #7C8C96",
"U  c #7C8E98",
"Y  c #808E97",
"T  c #8B9BA3",
"R  c #8B9DA9",
"E  c #909BA1",
"W  c #97A5AE",
"Q  c #9DA5AE",
"!  c #96A8B2",
"~  c #9CACB5",
"^  c #A6B2BB",
"/  c #A9B4BB",
"(  c #A9B6C0",
")  c #A6B9C7",
"_  c #ADBBC3",
"`  c #B0BFC4",
"'  c #BABFC2",
"]  c #AEC0CA",
"[  c #B6C1C5",
"{  c #BDC5C7",
"}  c #B6C4CA",
"|  c #AEC9D0",
" . c #B6C9D3",
".. c #BDCBD2",
"X. c #C2CED5",
"o. c #C6D5DD",
"O. c #C8D5DD",
"+. c #C9D8DF",
"@. c #D1D2D6",
"#. c #D3DADD",
"$. c #CCDBE2",
"%. c #D1D9E2",
"&. c #D7E1E3",
"*. c #D4E5EB",
"=. c #DBE4EC",
"-. c #DAE8EB",
";. c #DEECF4",
":. c #E2EBEE",
">. c #E3EDF3",
",. c #E3F0F6",
"<. c #E8F1F6",
"1. c #E3F5F9",
"2. c #EBF5FC",
"3. c #E7FAFE",
"4. c #EEFCFE",
"5. c #F1F3F7",
"6. c #F9FAF7",
"7. c #F6F5FA",
"8. c #F4FDFF",
"9. c #FEFFFE",
/* pixels */
"9.9.9.9.9.9.9.9.9.9.9.9.9.9.9.9.9.6.9.9.9.9.9.9.9.9.6.9.6.9.9.9.9.9.9.9.9.9.9.9.9.9.9.9.9.9.9.9.9.9.9.9.9.9.9.",
"9.9.9.9.9.9.9.9.9.9.9.9.9.9.9.9.9.9.9.9.9.9.9.9.9.9.9.9.9.9.9.9.9.9.9.9.9.9.9.9.9.9.9.9.9.9.9.9.9.9.9.9.9.9.9.",
"9.9.9.9.9.9.9.9.9.9.9.9.9.9.9.9.9.9.9.9.9.9.9.9.7.9.9.9.9.9.9.9.9.9.9.9.9.9.9.9.9.9.9.9.9.9.9.9.9.9.9.9.9.9.9.",
"9.9.9.9.9.9.9.9.9.9.9.9.9.9.9.9.9.9.9.9.9.9.9.9.9.9.9.9.9.9.9.9.9.9.9.9.9.9.9.9.9.9.9.9.9.9.9.9.9.9.9.9.9.9.9.",
"9.9.9.9.9.9.9.9.9.9.9.9.9.9.9.9.9.9.9.9.9.9.9.9.9.9.6.9.9.9.9.9.9.9.9.9.9.9.9.9.9.9.9.9.9.9.9.9.9.9.9.9.9.9.9.",
"9.9.9.9.9.9.9.9.9.9.9.9.9.9.9.9.9.9.9.9.9.9.9.6.9.9.9.9.9.9.9.9.9.9.9.9.9.9.9.9.9.9.9.9.9.9.9.9.9.9.9.9.9.9.9.",
"9.9.9.9.9.9.9.9.9.9.9.9.9.9.9.9.9.9.9.9.9.6.9.9.6.9.9.9.9.9.7.9.9.9.9.9.9.9.9.9.9.9.9.9.9.9.9.9.9.9.9.9.9.9.9.",
"9.9.9.9.9.9.9.9.9.9.9.9.9.9.9.9.9.9.9.9.6.9.6.9.9.6.9.9.9.9.9.9.9.9.9.9.9.9.9.9.9.9.9.9.9.9.9.9.9.9.9.9.9.9.9.",
"9.9.9.9.9.9.9.9.9.9.9.9.9.9.9.9.9.9.9.9.9.6.9.6.8.8.8.8.9.8.9.9.9.6.9.9.9.9.9.9.9.9.9.9.9.9.9.9.9.9.9.9.9.9.9.",
"9.9.9.9.9.9.9.9.9.9.9.9.9.9.9.9.9.9.6.9.6.9.9.8.8.8.8.9.8.9.9.9.9.7.9.9.9.9.9.9.9.9.9.9.9.9.9.9.9.9.9.9.9.9.9.",
"9.9.9.9.9.9.9.9.9.9.9.9.9.9.9.9.9.9.9.9.9.9.8.:.x > @ @ & ^ 8.9.8.9.9.9.9.9.9.9.9.9.9.9.9.9.9.9.9.9.9.9.9.9.9.",
"9.9.9.9.9.9.9.9.9.9.9.9.9.9.9.9.9.9.9.9.9.8.9.} < @ @ @ & A >.8.9.9.9.9.9.9.9.9.9.9.9.9.9.9.9.9.9.9.9.9.9.9.9.",
"9.9.9.9.9.9.9.9.9.9.9.9.9.9.9.9.9.6.9.9.9.9.2.L : $ $ : % y %.9.9.9.9.9.9.9.9.9.9.9.9.9.9.9.9.9.9.9.9.9.9.9.9.",
"9.9.9.9.9.9.9.9.9.9.9.9.9.9.9.9.9.9.9.9.9.8.;.a : $ 3 $ % , T 4.8.9.6.9.9.9.9.9.9.9.9.9.9.9.9.9.9.9.9.9.9.9.9.",
"9.9.9.9.9.9.9.9.9.9.9.9.9.9.9.9.9.9.9.9.9.9.^ % % 5 # 4 $ % n 8.9.9.9.9.9.9.9.9.9.9.9.9.9.9.9.9.9.9.9.9.9.9.9.",
"9.9.9.9.9.9.9.9.9.9.9.9.9.9.9.9.9.9.9.6.9.2.A % 3 $ 3 $ 3 $ 8 } 9.9.9.9.9.9.9.9.9.9.9.9.9.9.9.9.9.9.9.9.9.9.9.",
"9.9.9.9.9.9.9.9.9.9.9.9.9.9.9.9.9.9.6.9.9.o.i $ $ $ 3 $ # $ $ I 8.9.9.9.9.9.9.9.9.9.9.9.9.9.9.9.9.9.9.9.9.9.9.",
"9.9.9.9.9.9.9.9.9.9.9.9.9.9.9.9.9.9.6.9.8.T = = # 0 V h 3 $ $ c -.8.9.8.9.9.6.9.9.9.9.9.9.9.9.9.9.9.9.9.9.9.9.",
"9.9.9.9.9.9.9.9.9.9.9.9.9.9.9.9.9.9.9.9.>.N $ * : 8  .P % ; = $ ( 9.9.8.9.9.6.9.9.9.9.9.9.9.9.9.9.9.9.9.9.9.9.",
"9.9.9.9.9.9.9.9.9.9.9.9.9.9.9.9.9.7.9.9...7 2 ; % D 3.` O 2 2 O A 5.8.9.9.9.9.9.9.9.9.9.9.9.9.9.9.9.9.9.9.9.9.",
"9.9.9.9.9.9.9.9.9.9.9.9.9.9.9.9.9.9.9.8.P $ 2 4 $ ! 4.,.m $ 2 2 y %.9.9.9.9.9.6.9.9.9.9.9.9.9.9.9.9.9.9.9.9.9.",
"9.9.9.9.9.9.9.9.9.9.9.9.9.9.9.9.7.9.9.=.g = 3 O d *.4.4.I : $ ; @ E 8.8.9.9.9.9.9.9.9.9.9.9.9.9.9.9.9.9.9.9.9.",
"9.9.9.9.9.9.9.9.9.9.9.9.9.8.9.9.9.9.8.( % $ $ ; L 8.8.9.o.q ; 3 , M 2.8.9.9.6.9.9.9.9.9.9.9.9.9.9.9.9.9.9.9.9.",
"9.9.9.9.9.9.9.9.9.9.9.9.9.9.9.9.9.8.2.D % = $ : _ 2.9.9.-.N ; $ + 9 X.4.9.8.9.9.9.9.9.9.9.9.9.9.9.9.9.9.9.9.9.",
"9.9.9.9.9.9.9.9.9.9.9.9.6.9.9.8.9.8.*.p ; + ; b -.8.9.9.7.W % % @ % Y 8.8.8.9.9.6.9.9.9.9.9.9.9.9.9.9.9.9.9.9.",
"9.9.9.9.9.9.9.9.9.9.9.9.9.9.6.9.2._ f + $ ; < K 8.9.9.9.9.%.a $ 3 : l >.8.9.8.9.9.9.9.9.9.9.9.9.9.9.9.9.9.9.9.",
"9.9.9.9.9.9.9.9.6.9.9.9.9.9.2.{ x . $ ; ; 3 < ..4.9.9.7.9.8.Z % % O : ( 8.9.8.9.9.6.9.9.9.9.9.6.9.9.9.9.9.9.9.",
"9.9.9.9.9.6.9.9.9.9.9.9.8.9.#.k X : $ ; ; + M 3.8.8.9.9.9.9./ @ 2 : % F 2.8.9.9.9.9.9.9.9.9.9.9.9.9.9.9.9.9.9.",
"9.9.9.9.9.9.9.9.6.9.9.9.9.8.9.&.j ; ; 2 $ 7 T 4.8.8.9.9.9.9.*.f $ 4 ; p $.8.9.8.6.9.6.9.9.9.9.9.9.9.9.9.9.9.9.",
"9.9.9.9.6.9.6.9.9.6.9.6.9.8.9.4. .p - * 5 i $.4.4.4.8.9.7.8.4.K $ $ $ : W 4.9.9.9.9.6.9.6.9.9.6.9.9.9.9.9.9.9.",
"9.9.9.9.9.9.9.9.6.6.9.9.9.8.8.4.) 5 - - $ D 1.4.8.4.8.8.6.8.3.| 6 2 2 @ M >.8.9.9.9.9.6.9.9.9.9.9.9.9.9.9.9.9.",
"9.9.9.9.6.9.9.6.9.9.6.9.9.8.9.4.D # - - 2 @ : . @ : @ @ > X ; $ 4 - $ $ r X.9.6.9.9.6.9.9.9.9.9.9.9.9.9.9.9.9.",
"9.9.9.9.9.9.9.9.9.9.9.9.9.7.8.$.s 4 4 - $ ; ; ; ; $ % = $ : ; ; $ 2 2 ; @ Y 8.9.7.9.6.9.9.6.9.9.9.9.9.9.9.9.9.",
"9.9.9.9.9.9.9.9.9.6.9.9.9.9.8.T $ = * - ; $ ; ; ; 2 = = $ ; ; ; ; 2 $ 2 % v <.8.9.9.6.6.9.9.9.9.9.9.9.9.9.9.9.",
"9.9.9.9.9.9.9.9.6.9.9.9.9.9.:.B % - = $ ; : O $ $ % % % : : ; ; ; ; ; $ % % ( 8.9.9.6.9.9.9.9.9.9.9.9.9.9.9.9.",
"9.9.9.9.9.9.9.9.9.9.9.6.8.8.X.8 $ # 2 $ $ @ , @ @ @ % @ @ : @ @ @ $ + 2 $ % K 4.8.8.9.9.9.9.9.9.9.9.9.9.9.9.9.",
"9.9.9.9.9.9.9.9.9.7.9.9.9.4.U + : 2 % T 8.8.8.8.8.8.8.4.8.8.8.4.4.*.l $ + 3 p $.8.8.9.9.9.6.9.9.9.9.9.9.9.9.9.",
"9.9.9.9.9.9.9.6.9.8.9.9.7.;.c 2 $ 3 t $.8.8.8.9.8.9.8.8.8.8.9.8.8.4.L + $ $ 2 ! 8.9.6.6.9.9.9.9.9.9.9.9.9.9.9.",
"9.9.9.9.7.6.9.9.9.9.8.9.9.( % % $ + D 2.9.9.9.9.9.9.8.9.9.9.9.9.9.8.} 9 : ; O N ,.6.9.6.9.6.9.9.9.9.9.9.9.9.9.",
"9.9.9.9.9.9.9.9.9.6.9.9.2.H : % $ : ( 8.9.9.9.9.9.9.9.9.9.9.9.9.9.8.<.M $ 3 $ w +.8.9.9.9.9.9.9.9.9.9.9.9.9.9.",
"9.9.9.9.9.9.9.6.6.9.9.7.%.i % % + b ;.8.9.9.9.6.6.9.9.6.9.9.9.9.9.6.8.~ @ 3 $ @ T 8.9.6.9.9.9.9.9.9.9.9.9.9.9.",
"9.9.9.9.9.9.9.9.9.9.9.8.Q & @ 3 ; U 8.9.9.9.9.6.9.6.9.9.9.9.9.9.9.6.9.$.y $ : @ x -.6.9.9.9.6.9.9.9.9.9.9.9.9.",
"9.9.9.9.6.9.9.9.9.9.9.5.C & @   w o.8.8.9.9.9.9.9.9.9.9.9.9.9.6.6.9.9.8.G , X & > { 6.6.9.9.9.9.9.9.9.9.9.9.9.",
"9.9.9.9.9.9.9.9.9.8.6.@.w o , & A 4.8.9.6.9.9.6.6.9.9.9.9.9.9.9.6.9.9.8.[ 1 X @ o S 9.9.9.6.9.9.9.9.9.9.9.9.9.",
"9.6.9.9.9.9.9.9.9.9.9.9.9.8.2.8.8.8.9.9.9.9.6.9.9.9.9.9.9.9.9.9.9.9.9.9.8.8.8.8.8.9.9.6.9.9.6.9.9.9.9.9.9.9.9.",
"9.9.9.9.9.9.8.9.8.6.9.6.9.9.9.8.9.9.8.6.6.9.9.9.9.9.9.9.9.9.9.9.9.9.9.9.9.6.9.9.9.7.9.9.9.9.6.9.9.9.9.9.9.9.9.",
"9.9.9.9.9.8.9.8.9.9.9.9.9.9.9.9.6.9.6.9.9.6.9.9.9.9.9.9.9.9.9.9.9.9.9.9.9.9.6.9.9.9.9.9.6.9.9.9.9.9.9.9.9.9.9.",
"9.9.9.9.9.9.9.9.9.6.9.9.9.6.9.8.9.9.9.9.6.9.9.6.9.9.9.9.9.9.9.9.9.9.8.9.9.6.6.9.9.9.9.9.9.9.6.9.9.9.9.9.9.9.9.",
"9.9.9.9.9.9.9.9.9.9.9.9.9.9.9.9.9.9.9.9.9.9.9.9.9.9.9.9.9.9.9.9.9.9.9.9.9.9.9.9.9.9.9.9.9.9.9.9.9.9.9.9.9.9.9.",
"9.9.9.9.9.9.9.9.9.9.9.9.9.9.9.9.9.9.9.9.9.9.9.9.9.9.9.9.9.9.9.9.9.9.9.9.9.9.9.9.9.9.9.9.9.9.9.9.9.9.9.9.9.9.9.",
"9.9.9.9.9.9.9.9.9.9.9.9.9.9.9.9.9.9.9.9.9.9.9.9.9.9.9.9.9.9.9.9.9.9.9.9.9.9.9.9.9.9.9.9.9.9.9.9.9.9.9.9.9.9.9.",
"9.9.9.9.9.9.9.9.9.9.9.9.9.9.9.9.9.9.9.9.9.9.9.9.9.9.9.9.9.9.9.9.9.9.9.9.9.9.9.9.9.9.9.9.9.9.9.9.9.9.9.9.9.9.9.",
"9.9.9.9.9.9.9.9.9.9.9.9.9.9.9.9.9.9.9.9.9.9.9.9.9.9.9.9.9.9.9.9.9.9.9.9.9.9.9.9.9.9.9.9.9.9.9.9.9.9.9.9.9.9.9.",
"9.9.9.9.9.9.9.9.9.9.9.9.9.9.9.9.9.9.9.9.9.9.9.9.9.9.9.9.9.9.9.9.9.9.9.9.9.9.9.9.9.9.9.9.9.9.9.9.9.9.9.9.9.9.9.",
"9.9.9.9.9.9.9.9.9.9.9.9.9.9.9.9.9.9.9.9.9.9.9.9.9.9.9.9.9.9.9.9.9.9.9.9.9.9.9.9.9.9.9.9.9.9.9.9.9.9.9.9.9.9.9."
};
